<?xml version="1.0" encoding="utf-8"?>
<!-- Generator: Adobe Illustrator 22.0.1, SVG Export Plug-In . SVG Version: 6.00 Build 0)  -->
<svg version="1.1" id="Calque_1" xmlns="http://www.w3.org/2000/svg" xmlns:xlink="http://www.w3.org/1999/xlink" x="0px" y="0px"
	 viewBox="0 0 161.2 126.7" style="enable-background:new 0 0 161.2 126.7;" xml:space="preserve">
<style type="text/css">
	.st0{fill:#212B59;}
</style>
<g>
	<g>
		<g>
			<path class="st0" d="M142.5,69.4h-5.8c-0.8,0-1.4,0.6-1.4,1.4v8.4c0,0.8,0.6,1.4,1.4,1.4h5.8c1.1,0,7,0.3,7,5.4
				c0,5.1-5.8,5.2-7,5.2h-11.7l-10.3,0c-0.8,0-1.4,0.6-1.4,1.4v32.7c0,0.6,0.6,1.3,1.6,1.3h8.5c1.1,0,1.6-0.7,1.6-1.3v-23h11.7
				c1.3,0,18.7-0.2,18.7-16.4C161.2,69.7,144.7,69.4,142.5,69.4z"/>
		</g>
	</g>
	<path class="st0" d="M130.9,79.2c0,0.6-0.6,1.3-1.6,1.3h-8.5c-1,0-1.7-0.7-1.7-1.3V53.5l-11.5,26.1c-0.2,0.3-0.9,0.9-1.5,0.9h-8.1
		c-0.5,0-1.3-0.5-1.4-0.9L84.1,52.6v26.6c0,0.6-0.6,1.3-1.6,1.3h-8.5c-0.9,0-1.6-0.7-1.6-1.3V27.7c0-0.7,0.7-1.3,1.6-1.3h8.7
		c0.5,0,1.3,0.5,1.5,0.8l17.9,38l17.1-38c0.2-0.4,1.1-0.8,1.6-0.8h8.6c1,0,1.6,0.6,1.6,1.3V79.2z"/>
	<g>
		<g>
			<path class="st0" d="M30.5,25c-1.1-0.1-2.2-0.2-3.3-0.2C11.3,24.8,0,36.7,0,52.9c0,16.8,12.3,27.6,27.2,27.6
				c7.5,0,14.2-3.1,19.1-7.8c0.5-0.5,0.5-1.6,0-2.1l-6-6c-0.6-0.5-1.6-0.5-2.1,0c-3,2.9-6.8,4.6-11,4.6c-8.4,0-15.3-6.2-15.3-16.4
				c0-9.5,5.7-17,15.3-17c1.5,0,2.9,0.2,4.2,0.6c-0.7-2.8-1.1-5.7-1.1-8.8C30.4,26.8,30.4,25.9,30.5,25z"/>
		</g>
	</g>
	<g>
		<g>
			<path class="st0" d="M62.4,44.5c-8.4,0-15.3-6.2-15.3-16.4c0-9.5,5.7-17,15.3-17c4.2,0,8.1,1.8,11,4.7c0.5,0.5,1.5,0.5,2.1,0l6-6
				c0.5-0.5,0.5-1.5,0.2-2C76.8,3.1,69.9,0,62.4,0c-16,0-27.2,11.9-27.2,28.1c0,16.8,12.3,27.6,27.2,27.6c1.5,0,3-0.1,4.4-0.4
				c0.7-0.1,1.2-0.7,1.2-1.4V43.4C66.3,44.1,64.4,44.5,62.4,44.5z"/>
		</g>
	</g>
	<g>
		<g>
			<path class="st0" d="M32.9,99.4c-0.6,0-1.2-0.2-1.8-0.5c-0.5-0.3-1-0.8-1.3-1.3c-0.3-0.5-0.5-1.1-0.5-1.8c0-0.6,0.2-1.2,0.5-1.8
				c0.3-0.5,0.7-1,1.3-1.3c0.5-0.3,1.1-0.5,1.8-0.5c0.5,0,1,0.1,1.4,0.3c0.5,0.2,0.8,0.5,1.2,0.9l-0.4,0.3c-0.3-0.3-0.6-0.6-1-0.7
				c-0.4-0.2-0.8-0.3-1.2-0.3c-0.5,0-1.1,0.1-1.5,0.4c-0.5,0.3-0.8,0.6-1.1,1.1c-0.3,0.5-0.4,1-0.4,1.5c0,0.6,0.1,1.1,0.4,1.5
				c0.3,0.5,0.6,0.8,1.1,1.1c0.5,0.3,1,0.4,1.5,0.4c0.5,0,0.9-0.1,1.3-0.3c0.4-0.2,0.8-0.5,1.1-0.8l0.4,0.3c-0.3,0.4-0.7,0.7-1.2,1
				C34,99.3,33.5,99.4,32.9,99.4z"/>
			<path class="st0" d="M41.2,99.4c-0.6,0-1.2-0.2-1.8-0.5c-0.5-0.3-1-0.7-1.3-1.3c-0.3-0.5-0.5-1.1-0.5-1.8c0-0.6,0.2-1.2,0.5-1.8
				c0.3-0.5,0.7-1,1.3-1.3c0.5-0.3,1.1-0.5,1.8-0.5c0.6,0,1.2,0.2,1.8,0.5c0.5,0.3,1,0.7,1.3,1.3c0.3,0.5,0.5,1.1,0.5,1.8
				c0,0.6-0.2,1.2-0.5,1.8c-0.3,0.5-0.7,1-1.3,1.3C42.4,99.3,41.8,99.4,41.2,99.4z M41.2,92.8c-0.5,0-1.1,0.1-1.5,0.4
				c-0.5,0.3-0.8,0.6-1.1,1.1c-0.3,0.5-0.4,1-0.4,1.5c0,0.6,0.1,1.1,0.4,1.5s0.6,0.8,1.1,1.1c0.5,0.3,1,0.4,1.5,0.4s1.1-0.1,1.5-0.4
				c0.5-0.3,0.8-0.6,1.1-1.1c0.3-0.5,0.4-1,0.4-1.5c0-0.6-0.1-1.1-0.4-1.5c-0.3-0.5-0.6-0.8-1.1-1.1C42.2,93,41.7,92.8,41.2,92.8z"
				/>
			<path class="st0" d="M53.7,99.3v-5.5l-3.1,4.4l-3.1-4.4v5.5H47v-7l3.6,5.1l3.6-5.1v7H53.7z"/>
			<path class="st0" d="M63.7,99.3v-5.5l-3.1,4.4l-3.1-4.4v5.5h-0.5v-7l3.6,5.1l3.6-5.1v7H63.7z"/>
			<path class="st0" d="M69.6,99.4c-0.3,0-0.7-0.1-1-0.2c-0.3-0.1-0.6-0.3-0.9-0.6c-0.2-0.2-0.4-0.5-0.6-0.9c-0.1-0.3-0.2-0.7-0.2-1
				v-4.3h0.5v4.3c0,0.3,0.1,0.6,0.2,0.9c0.1,0.3,0.3,0.5,0.5,0.7c0.2,0.2,0.4,0.4,0.7,0.5c0.3,0.1,0.5,0.2,0.8,0.2
				c0.3,0,0.6-0.1,0.8-0.2c0.3-0.1,0.5-0.3,0.7-0.5c0.2-0.2,0.4-0.4,0.5-0.7c0.1-0.3,0.2-0.6,0.2-0.9v-4.3h0.5v4.3
				c0,0.4-0.1,0.7-0.2,1c-0.1,0.3-0.3,0.6-0.6,0.9c-0.2,0.3-0.5,0.5-0.9,0.6C70.3,99.4,70,99.4,69.6,99.4z"/>
			<path class="st0" d="M75.5,93.7v5.6H75v-7l4.8,5.7v-5.7h0.5v7.1L75.5,93.7z"/>
			<path class="st0" d="M84,97.6l-0.8,1.8h-0.5l3.3-7l3.1,7h-0.5l-0.8-1.8H84z M85.9,93.5l-1.7,3.6h3.3L85.9,93.5z"/>
			<path class="st0" d="M93.6,99.4c-0.3,0-0.7-0.1-1-0.2c-0.3-0.1-0.6-0.3-0.9-0.6c-0.2-0.2-0.4-0.5-0.6-0.9c-0.1-0.3-0.2-0.7-0.2-1
				v-4.3h0.5v4.3c0,0.3,0.1,0.6,0.2,0.9c0.1,0.3,0.3,0.5,0.5,0.7c0.2,0.2,0.4,0.4,0.7,0.5c0.3,0.1,0.5,0.2,0.8,0.2
				c0.3,0,0.6-0.1,0.8-0.2c0.3-0.1,0.5-0.3,0.7-0.5c0.2-0.2,0.4-0.4,0.5-0.7c0.1-0.3,0.2-0.6,0.2-0.9v-4.3h0.5v4.3
				c0,0.4-0.1,0.7-0.2,1c-0.1,0.3-0.3,0.6-0.6,0.9c-0.2,0.3-0.5,0.5-0.9,0.6C94.3,99.4,93.9,99.4,93.6,99.4z"/>
			<path class="st0" d="M104.6,92.4v0.5h-2.7v6.4h-0.5v-6.4h-2.8v-0.5H104.6z"/>
			<path class="st0" d="M106.9,99.3v-6.9h4.5v0.5h-4v2.7h3.1v0.5h-3.1v2.7h4v0.5H106.9z M109.5,90.6h0.9l-1.2,1.1h-0.6L109.5,90.6z"
				/>
			<path class="st0" d="M31.8,111.6h-2v-6.9h2c0.5,0,0.9,0.1,1.4,0.3c0.4,0.2,0.8,0.4,1.1,0.8c0.3,0.3,0.5,0.7,0.7,1.1
				c0.2,0.4,0.2,0.9,0.2,1.3s-0.1,0.9-0.2,1.3c-0.2,0.4-0.4,0.8-0.7,1.1c-0.3,0.3-0.7,0.6-1.1,0.8C32.8,111.5,32.3,111.6,31.8,111.6
				z M30.3,111.1h1.5c0.9,0,1.6-0.3,2.1-0.9c0.2-0.3,0.4-0.6,0.6-0.9c0.1-0.4,0.2-0.7,0.2-1.1c0-0.4-0.1-0.8-0.2-1.1
				c-0.1-0.4-0.3-0.7-0.6-0.9c-0.5-0.6-1.2-0.9-2.1-0.9h-1.5V111.1z"/>
			<path class="st0" d="M37.4,111.6v-6.9h4.5v0.5h-4v2.7H41v0.5h-3.1v2.7h4v0.5H37.4z"/>
			<path class="st0" d="M51.5,111.6c-0.6,0-1.2-0.2-1.8-0.5c-0.5-0.3-1-0.8-1.3-1.3c-0.3-0.5-0.5-1.1-0.5-1.8c0-0.6,0.2-1.2,0.5-1.8
				c0.3-0.5,0.7-1,1.3-1.3c0.5-0.3,1.1-0.5,1.8-0.5c0.5,0,1,0.1,1.4,0.3c0.5,0.2,0.8,0.5,1.2,0.9l-0.4,0.3c-0.3-0.3-0.6-0.6-1-0.7
				c-0.4-0.2-0.8-0.3-1.2-0.3c-0.5,0-1.1,0.1-1.5,0.4c-0.5,0.3-0.8,0.6-1.1,1.1c-0.3,0.5-0.4,1-0.4,1.5c0,0.6,0.1,1.1,0.4,1.5
				c0.3,0.5,0.6,0.8,1.1,1.1c0.5,0.3,1,0.4,1.5,0.4c0.5,0,0.9-0.1,1.3-0.3c0.4-0.2,0.8-0.5,1.1-0.8l0.4,0.3c-0.3,0.4-0.7,0.7-1.2,1
				C52.5,111.5,52,111.6,51.5,111.6z"/>
			<path class="st0" d="M59.4,111.6c-0.6,0-1.2-0.2-1.8-0.5c-0.5-0.3-1-0.7-1.3-1.3c-0.3-0.5-0.5-1.1-0.5-1.8c0-0.6,0.2-1.2,0.5-1.8
				c0.3-0.5,0.7-1,1.3-1.3c0.5-0.3,1.1-0.5,1.8-0.5c0.6,0,1.2,0.2,1.8,0.5c0.5,0.3,1,0.7,1.3,1.3c0.3,0.5,0.5,1.1,0.5,1.8
				c0,0.6-0.2,1.2-0.5,1.8c-0.3,0.5-0.7,1-1.3,1.3C60.6,111.5,60.1,111.6,59.4,111.6z M59.4,105c-0.5,0-1.1,0.1-1.5,0.4
				c-0.5,0.3-0.8,0.6-1.1,1.1c-0.3,0.5-0.4,1-0.4,1.5c0,0.6,0.1,1.1,0.4,1.5c0.3,0.5,0.6,0.8,1.1,1.1c0.5,0.3,1,0.4,1.5,0.4
				c0.5,0,1.1-0.1,1.5-0.4c0.5-0.3,0.8-0.6,1.1-1.1c0.3-0.5,0.4-1,0.4-1.5c0-0.6-0.1-1.1-0.4-1.5c-0.3-0.5-0.6-0.8-1.1-1.1
				C60.5,105.2,60,105,59.4,105z"/>
			<path class="st0" d="M71.7,111.6v-5.5l-3.1,4.4l-3.1-4.4v5.5H65v-7l3.6,5.1l3.6-5.1v7H71.7z"/>
			<path class="st0" d="M81.5,111.6v-5.5l-3.1,4.4l-3.1-4.4v5.5h-0.5v-7l3.6,5.1l3.6-5.1v7H81.5z"/>
			<path class="st0" d="M87.1,111.6c-0.3,0-0.7-0.1-1-0.2c-0.3-0.1-0.6-0.3-0.9-0.6c-0.2-0.2-0.4-0.5-0.6-0.9
				c-0.1-0.3-0.2-0.7-0.2-1v-4.3h0.5v4.3c0,0.3,0.1,0.6,0.2,0.9c0.1,0.3,0.3,0.5,0.5,0.7c0.2,0.2,0.4,0.4,0.7,0.5
				c0.3,0.1,0.5,0.2,0.8,0.2c0.3,0,0.6-0.1,0.8-0.2c0.3-0.1,0.5-0.3,0.7-0.5c0.2-0.2,0.4-0.4,0.5-0.7c0.1-0.3,0.2-0.6,0.2-0.9v-4.3
				h0.5v4.3c0,0.4-0.1,0.7-0.2,1c-0.1,0.3-0.3,0.6-0.6,0.9c-0.2,0.3-0.5,0.5-0.9,0.6C87.8,111.6,87.4,111.6,87.1,111.6z"/>
			<path class="st0" d="M92.7,105.9v5.6h-0.5v-7l4.8,5.7v-5.7h0.5v7.1L92.7,105.9z"/>
			<path class="st0" d="M100.1,111.6v-6.9h4.5v0.5h-4v2.7h3.1v0.5h-3.1v2.7h4v0.5H100.1z"/>
			<path class="st0" d="M111.3,108.9c0.2,0.3,0.3,0.6,0.3,0.9c0,0.3-0.1,0.5-0.2,0.8c-0.1,0.2-0.3,0.4-0.6,0.6
				c-0.5,0.4-1.1,0.5-1.7,0.5c-0.3,0-0.6,0-0.9-0.1c-0.3-0.1-0.6-0.2-0.8-0.4c-0.4-0.3-0.7-0.7-0.7-1.1l0.5-0.3c0,0.4,0.2,0.7,0.6,1
				c0.2,0.1,0.4,0.3,0.7,0.3c0.2,0.1,0.5,0.1,0.8,0.1c0.6,0,1-0.1,1.4-0.4c0.4-0.3,0.6-0.6,0.6-1c0-0.2-0.1-0.4-0.2-0.6
				c-0.1-0.2-0.3-0.4-0.6-0.5c-0.2-0.1-0.7-0.2-1.3-0.3c0,0-0.2,0-0.5-0.1c-0.3,0-0.6-0.1-0.8-0.2c-0.3-0.2-0.6-0.4-0.8-0.7
				c-0.2-0.3-0.3-0.6-0.3-0.9c0-0.3,0.1-0.5,0.2-0.7c0.1-0.2,0.3-0.4,0.6-0.6c0.2-0.2,0.5-0.3,0.8-0.4c0.3-0.1,0.6-0.1,0.9-0.1
				c0.7,0,1.2,0.2,1.7,0.5c0.4,0.3,0.7,0.7,0.7,1.1l-0.5,0.3c0-0.2-0.1-0.3-0.2-0.5c-0.1-0.2-0.2-0.3-0.4-0.4
				c-0.2-0.1-0.4-0.3-0.7-0.3c-0.2-0.1-0.5-0.1-0.8-0.1c-0.3,0-0.5,0-0.8,0.1c-0.3,0.1-0.5,0.2-0.7,0.3c-0.2,0.1-0.3,0.3-0.4,0.5
				c-0.1,0.2-0.2,0.3-0.2,0.5c0,0.2,0.1,0.4,0.2,0.7c0.2,0.2,0.4,0.4,0.6,0.5c0.2,0.1,0.3,0.1,0.5,0.2c0.2,0,0.4,0.1,0.7,0.1
				c0,0,0.2,0,0.4,0.1c0.2,0,0.4,0.1,0.6,0.1c0.2,0,0.3,0.1,0.5,0.2C110.8,108.4,111.1,108.6,111.3,108.9z"/>
			<path class="st0" d="M26.1,116.3l0.2,0.2v9.1l-0.2,0.2H25l-0.2-0.2V120l-2.5,5.7l-0.2,0.1h-1.2l-0.2-0.1l-2.5-5.7v5.6l-0.2,0.2
				h-1.1l-0.2-0.2v-9.1l0.2-0.2h1.1l0.2,0.1l3.3,7.3l3.3-7.3l0.2-0.1H26.1z"/>
			<path class="st0" d="M29.6,119.8v5.8l-0.2,0.2h-1.1l-0.2-0.2l0-5.8l0.2-0.2h1.1L29.6,119.8z M28.1,117.9c0-0.4,0.3-0.7,0.7-0.7
				c0.4,0,0.7,0.3,0.7,0.7c0,0.4-0.3,0.7-0.7,0.7C28.4,118.6,28.1,118.3,28.1,117.9z"/>
			<path class="st0" d="M34.6,119.6v1.1l-0.2,0.2c-0.4,0-0.8,0.1-1.2,0.4c-0.2,0.1-0.3,0.3-0.4,0.5v3.8l-0.2,0.2h-1.1l-0.2-0.2v-5.8
				l0.2-0.2h1.1l0.2,0.2v0.2c0.1-0.1,0.3-0.2,0.5-0.3c0.4-0.2,0.8-0.3,1.2-0.3L34.6,119.6z"/>
			<path class="st0" d="M37.2,119.8v5.8l-0.2,0.2h-1.1l-0.2-0.2l0-5.8l0.2-0.2H37L37.2,119.8z M35.7,117.9c0-0.4,0.3-0.7,0.7-0.7
				c0.4,0,0.7,0.3,0.7,0.7c0,0.4-0.3,0.7-0.7,0.7C36.1,118.6,35.7,118.3,35.7,117.9z"/>
			<path class="st0" d="M45.2,122.7c0,1.8-1.5,3.3-3.3,3.3c-0.6,0-1.1-0.2-1.5-0.5v0.2l-0.2,0.2h-1.1l-0.2-0.2V116l0.2-0.2h1.1
				l0.2,0.2v4c0.4-0.3,1-0.5,1.5-0.5C43.7,119.5,45.2,120.9,45.2,122.7z M43.7,122.7c0-1-0.8-1.8-1.8-1.8c-0.7,0-1.3,0.4-1.6,1
				c-0.1,0.2-0.2,0.5-0.2,0.8c0,0.3,0.1,0.5,0.2,0.8c0.3,0.6,0.9,1,1.6,1C42.9,124.5,43.7,123.7,43.7,122.7z"/>
			<path class="st0" d="M52.7,122.8v0.5l-0.2,0.2h-4.3c0.3,0.5,0.9,0.9,1.6,0.9c0.6,0,1.1-0.3,1.4-0.7l0.3,0l0.9,0.7l0,0.3
				c-0.6,0.8-1.6,1.3-2.6,1.3c-1.8,0-3.3-1.4-3.3-3.1c0-1.9,1.4-3.4,3.1-3.4C51.3,119.5,52.7,121,52.7,122.8z M51,122.1
				c-0.2-0.7-0.8-1.1-1.4-1.1c-0.6,0-1.2,0.4-1.4,1.1H51z"/>
			<path class="st0" d="M55.5,116v9.6l-0.2,0.2h-1.1l-0.2-0.2V116l0.2-0.2h1.1L55.5,116z"/>
			<path class="st0" d="M75.4,119.3c0,1.7-1.4,3-3,3h-1.3v3.3l-0.2,0.2h-1.1l-0.2-0.2v-9.1l0.2-0.2h2.6
				C74.1,116.3,75.4,117.6,75.4,119.3z M73.9,119.3c0-0.8-0.7-1.5-1.5-1.5h-1.3v3h1.3C73.2,120.8,73.9,120.1,73.9,119.3z"/>
			<path class="st0" d="M78.4,116v9.6l-0.2,0.2h-1.1l-0.2-0.2V116l0.2-0.2h1.1L78.4,116z"/>
			<path class="st0" d="M85.9,119.8v5.8l-0.2,0.2h-1.1l-0.2-0.2v-0.1c-0.4,0.3-1,0.5-1.6,0.5c-1.8,0-3.2-1.5-3.2-3.2
				c0-1.8,1.5-3.2,3.2-3.2c0.6,0,1.1,0.3,1.6,0.5v-0.2l0.2-0.2h1.1L85.9,119.8z M84.6,122.7c0-0.3-0.1-0.5-0.2-0.7
				c-0.3-0.6-0.9-1-1.6-1c-1,0-1.7,0.8-1.7,1.7s0.8,1.7,1.7,1.7c0.7,0,1.3-0.4,1.6-1C84.5,123.2,84.6,123,84.6,122.7z"/>
			<path class="st0" d="M90.6,119.3v1.1l-0.2,0.2h-0.8l0,5l-0.2,0.2h-1.1l-0.2-0.2l0-5h-0.7l-0.2-0.2v-1.1l0.2-0.2h0.7v-1.8l0.2-0.2
				l1.1,0l0.2,0.2l0,1.8h0.8L90.6,119.3z"/>
			<path class="st0" d="M97.4,122.8v0.5l-0.2,0.2H93c0.3,0.5,0.9,0.9,1.6,0.9c0.6,0,1.1-0.3,1.4-0.7l0.3,0l0.9,0.7l0,0.3
				c-0.6,0.8-1.6,1.3-2.6,1.3c-1.8,0-3.3-1.4-3.3-3.1c0-1.9,1.4-3.4,3.1-3.4C96,119.5,97.4,121,97.4,122.8z M95.8,122.1
				c-0.2-0.7-0.8-1.1-1.4-1.1c-0.6,0-1.2,0.4-1.4,1.1H95.8z"/>
			<path class="st0" d="M104.7,119.8v5.8l-0.2,0.2h-1.1l-0.2-0.2v-0.1c-0.4,0.3-1,0.5-1.6,0.5c-1.8,0-3.2-1.5-3.2-3.2
				c0-1.8,1.5-3.2,3.2-3.2c0.6,0,1.1,0.3,1.6,0.5v-0.2l0.2-0.2h1.1L104.7,119.8z M103.4,122.7c0-0.3-0.1-0.5-0.2-0.7
				c-0.3-0.6-0.9-1-1.6-1c-1,0-1.7,0.8-1.7,1.7s0.8,1.7,1.7,1.7c0.7,0,1.3-0.4,1.6-1C103.4,123.2,103.4,123,103.4,122.7z"/>
			<path class="st0" d="M111.5,119.8v5.8l-0.2,0.2h-1.1l-0.2-0.2v-0.1c-0.1,0.1-0.3,0.2-0.4,0.2c-0.3,0.1-0.6,0.2-0.9,0.2
				c-0.2,0-0.4,0-0.6-0.1c-0.3-0.1-0.5-0.2-0.8-0.4c-0.2-0.2-0.4-0.4-0.6-0.6c-0.3-0.4-0.4-1-0.4-1.5l0-3.5l0.2-0.2l1.1,0l0.2,0.2
				l0,3.5c0,0.3,0.1,0.5,0.2,0.7c0.1,0.2,0.3,0.3,0.5,0.4c0.2,0.1,0.5,0.1,0.7,0.1c0.2,0,0.5-0.1,0.6-0.3v-4.3l0.2-0.2h1.1
				L111.5,119.8z"/>
		</g>
	</g>
	<polygon class="st0" points="58.9,119.7 58.9,123.9 62.5,126.1 66.2,123.9 66.2,119.7 62.5,117.6 	"/>
</g>
</svg>
